<svg preserveAspectRatio="xMidYMid meet" width="160" height="60" viewBox="0 0 160 60" version="1.1" id="Layer_1" xmlns="http://www.w3.org/2000/svg" xmlns:xlink="http://www.w3.org/1999/xlink" x="0px" y="0px" style="enable-background:new 0 0 376.5 108;" xml:space="preserve" role="img" aria-labelledby="titleCL">
 <style type="text/css">
  .st0{fill:#E92300;}
	.st1{fill:#D9D9D8;}
	.st2{fill:#424243;}
	.st3{fill:#959595;}
 </style>
 <g>
  <path class="st0" d="M46.7,54L0,27L46.7,0l47.1,27L46.7,54">
  </path>
  <path class="st1" d="M0,27l46.7,27L0,81.4V27z">
  </path>
  <path class="st2" d="M0,81.4L46.7,108V54L0,81.4z">
  </path>
  <path class="st3" d="M46.7,54v54l46.7-27L46.7,54z">
  </path>
  <path class="st3" d="M368.4,47L368.4,47c-0.1-2.3,1.7-4.1,4-4.2c2.3-0.1,4.1,1.7,4.2,4V47l0,0c0.1,2.3-1.7,4.1-4,4.2
		c-2.3,0.1-4.1-1.7-4.2-4l0,0V47z M376,47L376,47c0-2-1.5-3.6-3.5-3.6c0,0,0,0,0,0l0,0c-2,0-3.6,1.6-3.6,3.6l0,0
		c0,2,1.6,3.6,3.6,3.6C374.5,50.6,376.1,49,376,47L376,47z M370.8,44.8h1.9c0.9,0,1.6,0.4,1.6,1.3c0,0.6-0.4,1.1-1,1.3l1.1,1.6h-1
		l-1-1.4h-0.9V49h-0.8L370.8,44.8z M372.6,46.8c0.5,0,0.8-0.3,0.8-0.7s-0.3-0.7-0.8-0.7h-1v1.4H372.6z">
  </path>
  <path class="st0" d="M136.6,42.6c-1.1-1.5-2.6-2.6-4.4-3.3c-3.6-1.4-7.6-1.4-11.2,0.1c-1.7,0.8-3.3,1.9-4.6,3.3
		c-1.3,1.4-2.3,3.1-3,4.9c-0.7,1.9-1,4-1,6c0,2.2,0.3,4.4,1,6.4c0.6,1.8,1.6,3.5,2.9,4.9c1.3,1.4,2.8,2.5,4.5,3.2
		c1.9,0.8,3.9,1.2,6,1.1c2.1,0,4.1-0.4,6-1.3c1.7-0.8,3.1-2.1,4.2-3.6l6,4.2c-1.9,2.3-4.2,4.1-6.9,5.4c-3,1.4-6.2,2-9.5,2
		c-3.1,0-6.2-0.5-9.1-1.6c-5.4-2.1-9.7-6.3-11.8-11.6c-1.1-2.9-1.7-5.9-1.7-9c0-3.1,0.6-6.2,1.8-9.1c1.1-2.6,2.8-5,4.8-7
		c2.1-2,4.6-3.5,7.3-4.4c2.9-1,6-1.6,9.1-1.5c1.4,0,2.8,0.1,4.2,0.4c1.5,0.3,2.9,0.7,4.2,1.2c1.3,0.5,2.6,1.2,3.8,2
		c1.1,0.8,2.1,1.7,3,2.8L136.6,42.6z">
  </path>
  <path class="st0" d="M144.6,60.5c0-2.1,0.4-4.2,1.2-6.2c1.6-3.6,4.5-6.4,8.2-7.8c3.9-1.4,8.2-1.4,12.2,0c1.8,0.7,3.5,1.7,5,3
		c1.4,1.3,2.5,3,3.3,4.7c1.7,4,1.7,8.4,0,12.4c-0.8,1.8-1.9,3.4-3.3,4.8c-1.4,1.4-3.1,2.4-5,3.1c-3.9,1.5-8.2,1.5-12.2,0
		c-3.7-1.4-6.7-4.3-8.3-8C144.9,64.6,144.5,62.6,144.6,60.5z M151.8,60.5c0,1.1,0.2,2.3,0.5,3.3c0.3,1.1,0.8,2.1,1.5,3
		c0.7,0.9,1.6,1.6,2.6,2.1c2.3,1.1,5.1,1.1,7.4,0c1-0.5,1.9-1.3,2.6-2.1c0.7-0.9,1.3-1.9,1.6-3c0.3-1.1,0.5-2.2,0.5-3.3
		c0-1.1-0.2-2.2-0.5-3.3c-0.3-1.1-0.8-2.1-1.5-2.9c-0.7-0.9-1.6-1.7-2.7-2.2c-2.3-1.1-5.1-1.1-7.4,0c-1,0.5-1.9,1.2-2.6,2.1
		c-0.7,0.9-1.2,1.9-1.5,2.9C152,58.1,151.8,59.3,151.8,60.5L151.8,60.5z">
  </path>
  <path class="st0" d="M179.6,46.3h6.9V51h0.1c0.8-1.6,1.9-3,3.3-4c1.5-1,3.2-1.6,5-1.6h0.9c0.3,0,0.6,0.1,0.8,0.1v6.6
		c-0.4-0.1-0.8-0.2-1.2-0.2c-0.3,0-0.7,0-1,0c-1.4-0.1-2.8,0.2-4,0.9c-0.9,0.5-1.7,1.3-2.3,2.2c-0.5,0.8-0.9,1.6-1.1,2.6
		c-0.2,0.7-0.3,1.3-0.3,2v15.3h-7.1V46.3z">
  </path>
  <path class="st0" d="M226.6,60.9v0.9c0,0.3,0,0.6,0,1h-21.8c0.1,1,0.3,2,0.8,2.8c0.5,0.8,1.1,1.6,1.8,2.2c0.8,0.6,1.6,1.1,2.6,1.5
		c1,0.4,2,0.5,3,0.5c1.6,0,3.1-0.3,4.5-1c1.2-0.7,2.3-1.6,3-2.7l4.8,3.8c-2.9,3.8-7.5,6-12.3,5.7c-2.1,0-4.2-0.3-6.1-1
		c-1.8-0.7-3.4-1.7-4.8-3c-1.4-1.3-2.5-2.9-3.2-4.7c-0.8-2-1.2-4.1-1.2-6.3c0-2.1,0.4-4.3,1.2-6.3c1.4-3.7,4.3-6.6,8-8
		c1.9-0.7,3.9-1.1,6-1.1c1.9,0,3.8,0.3,5.5,1c1.7,0.6,3.2,1.6,4.4,2.9c1.3,1.4,2.3,3,2.9,4.8C226.3,56.3,226.6,58.6,226.6,60.9z
		 M219.4,57.7c0-0.9-0.1-1.8-0.4-2.6c-0.5-1.7-1.7-3.1-3.3-3.7c-0.9-0.4-2-0.6-3-0.6c-2,0-4,0.7-5.5,2c-1.5,1.2-2.4,3-2.5,5
		L219.4,57.7z">
  </path>
  <path class="st3" d="M231.7,32.7h7.5v35.6h18v6.7h-25.5V32.7z">
  </path>
  <path class="st3" d="M258.4,60.5c0-2.1,0.4-4.2,1.2-6.2c0.8-1.8,1.9-3.4,3.3-4.7c1.4-1.3,3.1-2.4,4.9-3c3.9-1.4,8.2-1.4,12.2,0
		c3.7,1.3,6.7,4.2,8.3,7.8c1.6,4,1.6,8.4,0,12.4c-1.5,3.7-4.5,6.6-8.3,8c-3.9,1.5-8.3,1.5-12.2,0c-1.8-0.7-3.5-1.8-4.9-3.1
		c-1.4-1.4-2.5-3-3.3-4.8C258.8,64.8,258.4,62.6,258.4,60.5z M265.7,60.5c0,1.1,0.2,2.3,0.5,3.3c0.3,1.1,0.8,2.1,1.5,3
		c0.7,0.9,1.6,1.6,2.6,2.1c2.3,1.1,5.1,1.1,7.4,0c1-0.5,1.9-1.3,2.6-2.1c0.7-0.9,1.2-1.9,1.5-3c0.3-1.1,0.5-2.2,0.5-3.3
		c0-1.1-0.2-2.2-0.5-3.3c-0.3-1.1-0.8-2.1-1.5-2.9c-0.7-0.9-1.5-1.7-2.6-2.2c-2.3-1.1-5.1-1.1-7.4,0c-1,0.5-1.9,1.2-2.6,2.1
		c-0.7,0.9-1.2,1.9-1.5,2.9C265.8,58.2,265.7,59.3,265.7,60.5z">
  </path>
  <path class="st3" d="M323.8,46.3v26c0,2.4-0.3,4.7-1,7c-0.5,2-1.5,3.8-2.9,5.4c-1.4,1.5-3.2,2.7-5.1,3.4c-2.3,0.9-4.8,1.3-7.2,1.2
		c-1.2,0-2.5-0.1-3.7-0.3c-1.3-0.2-2.6-0.5-3.8-0.9c-1.2-0.4-2.4-0.9-3.6-1.5c-1.1-0.6-2.1-1.2-3.1-2l4.1-5.6c1.4,1.3,3,2.3,4.7,3
		c1.7,0.7,3.5,1,5.3,1c1.5,0,2.9-0.2,4.3-0.7c1.1-0.4,2.1-1.1,2.8-2c0.7-0.9,1.2-2,1.5-3.1c0.3-1.3,0.5-2.7,0.4-4V71h-0.1
		c-1,1.4-2.4,2.5-4,3.2c-1.7,0.8-3.5,1.1-5.4,1.1c-2,0-4-0.4-5.8-1.2c-1.7-0.7-3.2-1.8-4.5-3.2c-1.2-1.4-2.2-3-2.9-4.7
		c-0.7-1.8-1-3.8-1-5.8c0-2,0.3-4,1-5.8c0.6-1.8,1.6-3.4,2.8-4.8c1.2-1.4,2.7-2.5,4.4-3.2c1.8-0.8,3.8-1.2,5.8-1.2
		c2,0,3.9,0.4,5.7,1.2c1.8,0.8,3.2,2.2,4.2,3.9h0.1v-4.3L323.8,46.3z M308.6,51.3c-1.2,0-2.4,0.2-3.5,0.7c-1,0.5-1.9,1.2-2.6,2
		c-0.7,0.8-1.3,1.8-1.6,2.9c-0.4,1.1-0.6,2.3-0.6,3.6c0,1.1,0.2,2.3,0.6,3.3c0.4,1,0.9,2,1.6,2.9c0.7,0.8,1.6,1.5,2.6,2
		c1.1,0.5,2.2,0.8,3.4,0.8c2.4,0,4.6-1,6.2-2.7c0.8-0.8,1.3-1.8,1.7-2.9c0.4-1.1,0.6-2.3,0.6-3.4c0-1.2-0.2-2.4-0.6-3.5
		c-0.4-1.1-0.9-2.1-1.7-2.9c-0.8-0.8-1.7-1.5-2.7-2C310.9,51.5,309.7,51.3,308.6,51.3z">
  </path>
  <path class="st3" d="M327,36.5c0-1.1,0.5-2.2,1.3-3c0.9-0.9,2-1.3,3.3-1.3c1.2,0,2.4,0.4,3.3,1.2c1.7,1.6,1.9,4.2,0.3,5.9
		c0,0,0,0-0.1,0.1l-0.2,0.2c-0.9,0.8-2.1,1.3-3.3,1.2c-1.2,0-2.4-0.4-3.3-1.3C327.4,38.8,327,37.7,327,36.5z M328,46.3h7.2v28.6H328
		L328,46.3z">
  </path>
  <path class="st3" d="M360.5,54.4c-0.6-0.9-1.5-1.6-2.5-2c-1.1-0.5-2.2-0.8-3.4-0.8c-1.2,0-2.4,0.2-3.5,0.8c-1,0.5-1.8,1.2-2.5,2.1
		c-0.7,0.9-1.2,1.9-1.5,2.9c-0.3,1.1-0.5,2.2-0.5,3.3c0,1.1,0.2,2.2,0.5,3.3c0.3,1.1,0.8,2.1,1.5,3c1.4,1.9,3.6,3,6,2.9
		c1.1,0,2.3-0.2,3.3-0.7c1.1-0.4,2-1.1,2.7-2l4.6,4.7c-1.3,1.3-2.8,2.3-4.6,3c-1.9,0.7-4,1.1-6,1c-2,0-4.1-0.3-6-1
		c-3.7-1.3-6.7-4.1-8.3-7.7c-0.8-2-1.3-4.2-1.2-6.4c0-2.1,0.4-4.3,1.2-6.3c0.8-1.8,1.9-3.4,3.3-4.8c1.4-1.3,3.1-2.4,4.9-3
		c3.9-1.5,8.2-1.4,12,0.1c1.8,0.7,3.4,1.8,4.7,3.3L360.5,54.4z">
  </path>
 </g>
</svg>
